<svg width="256" height="15" viewBox="0 0 256 15" fill="none" xmlns="http://www.w3.org/2000/svg">
<circle cx="5" cy="7.51312" r="5" fill="#25D366"/>
<path d="M10 6.51312C9.44772 6.51312 9 6.96084 9 7.51312C9 8.06541 9.44772 8.51312 10 8.51312V6.51312ZM255.707 8.22023C256.098 7.82971 256.098 7.19654 255.707 6.80602L249.343 0.442055C248.953 0.0515304 248.319 0.0515304 247.929 0.442055C247.538 0.832579 247.538 1.46574 247.929 1.85627L253.586 7.51312L247.929 13.17C247.538 13.5605 247.538 14.1937 247.929 14.5842C248.319 14.9747 248.953 14.9747 249.343 14.5842L255.707 8.22023ZM10 8.51312H255V6.51312H10V8.51312Z" fill="#25D366"/>
</svg>
