<svg width="43" height="44" viewBox="0 0 43 44" fill="none" xmlns="http://www.w3.org/2000/svg">
<mask id="path-1-inside-1_115_5417" fill="white">
<path d="M0 21.7264C0 9.85226 9.62588 0.226379 21.5 0.226379C33.3741 0.226379 43 9.85226 43 21.7264C43 33.6005 33.3741 43.2264 21.5 43.2264C9.62588 43.2264 0 33.6005 0 21.7264Z"/>
</mask>
<path d="M0 21.7264C0 9.85226 9.62588 0.226379 21.5 0.226379C33.3741 0.226379 43 9.85226 43 21.7264C43 33.6005 33.3741 43.2264 21.5 43.2264C9.62588 43.2264 0 33.6005 0 21.7264Z" fill="#25D366"/>
<path d="M-2 21.7264C-2 8.74769 8.52131 -1.77362 21.5 -1.77362C34.4787 -1.77362 45 8.74769 45 21.7264H41C41 10.9568 32.2696 2.22638 21.5 2.22638C10.7304 2.22638 2 10.9568 2 21.7264H-2ZM45 23.7264C45 36.7051 34.4787 47.2264 21.5 47.2264C8.52131 47.2264 -2 36.7051 -2 23.7264L2 21.7264C2 31.3914 10.7304 39.2264 21.5 39.2264C32.2696 39.2264 41 31.3914 41 21.7264L45 23.7264ZM21.5 47.2264C8.52131 47.2264 -2 36.7051 -2 23.7264V21.7264C-2 8.74769 8.52131 -1.77362 21.5 -1.77362V2.22638C10.7304 2.22638 2 10.9568 2 21.7264C2 31.3914 10.7304 39.2264 21.5 39.2264V47.2264ZM21.5 -1.77362C34.4787 -1.77362 45 8.74769 45 21.7264V23.7264C45 36.7051 34.4787 47.2264 21.5 47.2264V39.2264C32.2696 39.2264 41 31.3914 41 21.7264C41 10.9568 32.2696 2.22638 21.5 2.22638V-1.77362Z" fill="#379A5C" mask="url(#path-1-inside-1_115_5417)"/>
<rect width="19.6328" height="3" rx="1.5" transform="matrix(0.707107 0.707107 0.707107 -0.707107 13.498 14.8457)" fill="#272727"/>
<rect x="13.498" y="26.607" width="19.6328" height="3" rx="1.5" transform="rotate(-45 13.498 26.607)" fill="#272727"/>
</svg>
