<svg width="79" height="78" viewBox="0 0 79 78" fill="none" xmlns="http://www.w3.org/2000/svg">
<path d="M65.5 65.0004H45.0704M13.5 65.0004V52.0004L39.5 26.0004L48.823 16.6773L48.8287 16.6717C50.112 15.3884 50.7548 14.7455 51.4958 14.5048C52.1486 14.2927 52.8518 14.2927 53.5045 14.5048C54.245 14.7454 54.8871 15.3875 56.1686 16.669L61.823 22.3233C63.11 23.6104 63.7538 24.2542 63.995 24.9963C64.207 25.649 64.207 26.3522 63.9949 27.0049C63.7539 27.7464 63.1111 28.3893 61.8259 29.6745L61.823 29.6773L52.5 39.0003L26.5 65.0003L13.5 65.0004Z" stroke="#25D366" stroke-width="7" stroke-linecap="round" stroke-linejoin="round"/>
</svg>
