<svg width="16" height="62" viewBox="0 0 16 62" fill="none" xmlns="http://www.w3.org/2000/svg">
<circle cx="8" cy="5.85953" r="5" fill="#25D366"/>
<path d="M9 10.8595C9 10.3072 8.55228 9.85953 8 9.85953C7.44772 9.85953 7 10.3072 7 10.8595H9ZM7.29289 61.5666C7.68342 61.9572 8.31658 61.9572 8.70711 61.5666L15.0711 55.2027C15.4616 54.8121 15.4616 54.179 15.0711 53.7885C14.6805 53.3979 14.0474 53.3979 13.6569 53.7885L8 59.4453L2.34315 53.7885C1.95262 53.3979 1.31946 53.3979 0.928932 53.7885C0.538408 54.179 0.538408 54.8121 0.928932 55.2027L7.29289 61.5666ZM7 10.8595V60.8595H9V10.8595H7Z" fill="#25D366"/>
</svg>
